<svg width="20" height="19" viewBox="0 0 20 19" fill="none" xmlns="http://www.w3.org/2000/svg">
<path d="M8.91193 0.667894C9.11266 0.259737 9.53686 0 10.0027 0C10.4686 0 10.889 0.259737 11.0935 0.667894L13.5289 5.57692L18.9677 6.36355C19.4222 6.43033 19.8009 6.74202 19.9411 7.16873C20.0812 7.59544 19.9676 8.06667 19.6418 8.38207L15.6953 12.2076L16.627 17.6138C16.7028 18.0591 16.5134 18.5118 16.1384 18.7752C15.7635 19.0387 15.2673 19.0721 14.8583 18.8606L9.99893 16.3189L5.13961 18.8606C4.73056 19.0721 4.2344 19.0424 3.85944 18.7752C3.48448 19.5081 3.29511 18.0591 3.37085 17.6138L4.30636 12.2076L0.359813 8.38207C0.0340907 8.06667 -0.08332 7.59544 0.060604 7.16873C0.204528 6.74202 0.579486 6.43033 1.03398 6.36355L6.47658 5.57692L8.91193 0.667894Z" fill="#D6D6D6"/>
</svg>
