<svg width="66" height="63" viewBox="0 0 66 63" fill="none" xmlns="http://www.w3.org/2000/svg">
<path d="M29.004 2.21484C29.6573 0.861328 31.0379 0 32.554 0C34.0701 0 35.4384 0.861328 36.104 2.21484L44.0299 18.4939L61.7306 21.1025C63.2097 21.324 64.4424 22.3576 64.8984 23.7727C65.3545 25.1877 64.9847 26.7504 63.9247 27.7963L51.0806 40.4824L54.1129 58.4104C54.3594 59.8869 53.7431 61.3881 52.5228 62.2617C51.3024 63.1354 49.6877 63.2461 48.3564 62.5447L32.5417 54.116L16.7269 62.5447C15.3957 63.2461 13.7809 63.1477 12.5606 62.2617C11.3403 61.3758 10.724 59.8869 10.9705 58.4104L14.0151 40.4824L1.17102 27.7963C0.110947 26.7504 -0.271167 25.1877 0.197236 23.7727C0.665639 22.3576 1.88595 21.324 3.36511 21.1025L21.0781 18.4939L29.004 2.21484Z" fill="#D6D6D6"/>
</svg>
